<svg version="1.1" id="Layer_1" xmlns="http://www.w3.org/2000/svg" x="0" y="0" viewBox="0 0 371.6 195.8"
     xml:space="preserve">
    <path class="st0"
          d="M225.6 130.5h16.2v1.6h-14.5v8.9h13v1.6h-13v9.1h14.6v1.6h-16.3v-22.8zM243.9 136.7h1.6v3.1c1.1-1.9 3-3.5 6-3.5 4.2 0 6.6 2.9 6.6 6.8v10.1h-1.6v-9.8c0-3.4-1.9-5.6-5.3-5.6-3.2 0-5.7 2.5-5.7 5.9v9.6h-1.6v-16.6zM260.7 156l.9-1.3c2 1.5 4.3 2.3 6.7 2.3 3.8 0 6.5-2.2 6.5-6.4v-2.4c-1.4 2-3.6 3.8-6.9 3.8-4 0-8-3.1-8-7.8v-.1c0-4.8 4-7.9 8-7.9 3.3 0 5.5 1.8 6.9 3.7v-3.3h1.6v14c0 2.4-.8 4.3-2.1 5.6-1.4 1.4-3.6 2.2-6 2.2-2.8.1-5.3-.7-7.6-2.4zm14.2-11.8c0-3.9-3.4-6.4-6.9-6.4-3.5 0-6.4 2.4-6.4 6.3v.1c0 3.7 3 6.3 6.4 6.3 3.5 0 6.9-2.5 6.9-6.3zM278.8 129.6h1.6v23.7h-1.6v-23.7zM300.9 136.7h1.6v3.1c1.1-1.9 3-3.5 6-3.5 4.2 0 6.6 2.9 6.6 6.8v10.1h-1.6v-9.8c0-3.4-1.9-5.6-5.3-5.6-3.2 0-5.7 2.5-5.7 5.9v9.6h-1.6v-16.6zM317.2 145.1c0-5.5 4.1-8.7 8-8.7 3.3 0 5.5 1.9 6.8 4v-10.7h1.6v23.7H332v-3.7c-1.4 2.2-3.5 4.1-6.8 4.1-4-.1-8-3.4-8-8.7zm14.9-.1c0-4.3-3.3-7.2-6.8-7.2-3.6 0-6.5 2.6-6.5 7.1v.1c0 4.4 3 7.1 6.5 7.1s6.8-2.9 6.8-7.1zM282.1 145.1c0-5.5 4.1-8.7 8-8.7 3.3 0 5.5 1.9 6.8 4v-3.6h1.6v16.6h-1.6v-3.7c-1.4 2.2-3.5 4.1-6.8 4.1-4-.1-8-3.4-8-8.7zm14.9-.1c0-4.3-3.3-7.2-6.8-7.2-3.6 0-6.5 2.6-6.5 7.1v.1c0 4.4 3 7.1 6.5 7.1s6.8-2.9 6.8-7.1zM88.6 95.7H78v-7h28.7v7H96.2v30.2h-7.6V95.7zM137.1 122.4v3.5h-7.5V88.6h7.5v14.6c1.8-2.5 4.4-4.3 8.3-4.3 6.2 0 12.1 4.8 12.1 13.7v.1c0 8.9-5.8 13.7-12.1 13.7-4.1 0-6.6-1.8-8.3-4zm12.8-9.7c0-4.5-3-7.4-6.5-7.4s-6.4 2.9-6.4 7.3v.1c0 4.4 2.9 7.3 6.4 7.3 3.5 0 6.5-2.9 6.5-7.3z"/>
    <path class="st0"
          d="M110.6 126.4c-6.3 0-12.1-4.8-12.1-13.7v-.1c0-8.9 5.9-13.7 12.1-13.7 3.9 0 6.4 1.8 8.3 4.3v-3.4h7.5v26.1h-7.5v-3.5c-1.8 2.2-4.3 4-8.3 4zm2-6.4c3.5 0 6.4-2.9 6.4-7.3v-.1c0-4.4-2.9-7.3-6.4-7.3-3.5 0-6.5 2.9-6.5 7.3v.1c0 4.4 2.9 7.3 6.5 7.3zM169.7 112.8c0-7.7 5.4-13.9 13.1-13.9 8.9 0 12.2 6.9 12.2 14.4 0 .6-.1 1.3-.1 2h-17.7c.7 3.4 3.1 5.2 6.5 5.2 2.5 0 4.4-.8 6.4-2.7l4.3 3.8c-2.5 3.1-6 4.9-10.8 4.9-8 0-13.9-5.6-13.9-13.7zm18.3-2.2c-.4-3.4-2.4-5.6-5.4-5.6-2.8 0-4.9 2.2-5.5 5.6H188zM216.7 112.8v-.1c0-7.6 5.4-13.8 13.1-13.8 8.9 0 12.2 6.9 12.2 14.4 0 .6 0 1.3-.1 2h-17.7c.7 3.4 3.1 5.2 6.5 5.2 2.5 0 4.4-.8 6.4-2.7l4.3 3.8c-2.5 3.1-6 4.9-10.8 4.9-8 0-13.9-5.6-13.9-13.7zm18.2-2.2c-.4-3.4-2.4-5.6-5.4-5.6-2.8 0-4.9 2.2-5.5 5.6h10.9z"/>
    <path class="st0"
          d="M205.9 95.7h-10.5v-7h28.7v7h-10.5v30.2H206V95.7zM244.4 99.4h7.5v3.8c1.7-2.2 4-4.3 7.8-4.3 5.7 0 9 3.8 9 9.8v17.2h-7.5v-14.8c0-3.6-1.7-5.4-4.6-5.4-2.9 0-4.7 1.8-4.7 5.4v14.8h-7.5V99.4zM271.8 99.4h7.5v3.8c1.7-2.2 4-4.3 7.8-4.3 5.7 0 9 3.8 9 9.8v17.2h-7.5v-14.8c0-3.6-1.7-5.4-4.6-5.4-2.9 0-4.7 1.8-4.7 5.4v14.8h-7.5V99.4zM309.8 122.1l3.4-4.8c3.6 2.4 7.9 3.3 10.6 3.3 2.3 0 3.4-.8 3.4-1.9 0-1.7-3.3-2.2-6.4-3.3-4.2-1.4-9.5-3.7-9.5-8.2v-.1c0-5.4 5.3-8.1 11.2-8.1 3.7 0 7.7 1.1 11 3.2l-2.9 5.2c-3-1.6-6.8-2.6-8.9-2.6-2 0-3.2.7-3.2 1.7 0 1.2 2.5 2.1 6.7 3.4 4.1 1.3 9.2 3 9.2 7.9v.1c0 5.9-5.2 8.6-11.6 8.6-4.1-.1-8.7-1.3-13-4.4zM160.1 88.6h7.5v37.3h-7.5zM303.4 101.7c-1.4 0-2.7-.5-3.8-1.3v25.4h7.5v-25.4c-1 .9-2.3 1.3-3.7 1.3zM299.1 95.4c0-2.4 1.9-4.3 4.3-4.3s4.3 1.9 4.3 4.3-1.9 4.3-4.3 4.3-4.3-1.9-4.3-4.3zM113.8 82.4c.3.2.5.4.7.6l15.8-4.4c-.3-.4-.5-.7-.8-1.1l-15.7 4.9zm-2.9-2.1c.3.2.5.3.8.5l15.6-6.1c-.3-.3-.6-.7-.9-1l-15.5 6.6zm-3.2-1.7c.3.1.6.3.9.4l15.1-7.9c-.3-.3-.7-.6-1-.9l-15 8.4zm-30.5 1.5c.3-.2.5-.3.8-.5l2.5-16.5c-.4.2-.9.3-1.3.5l-2 16.5zm3.1-1.6c.3-.1.6-.3.9-.4l4.2-16.4c-.4.1-.9.2-1.3.3l-3.8 16.5zm3.3-1.3.9-.3 6-16.1c-.5.1-.9.1-1.4.2l-5.5 16.2zM67.2 89.5c.2-.3.4-.5.5-.8l-3.9-14.2c-.3.3-.6.7-.9 1l4.3 14zm4.5-5.2c.2-.2.5-.4.7-.6l-1-15.8c-.4.3-.7.5-1.1.8l1.4 15.6zm-2.4 2.5c.2-.2.4-.5.6-.7L67.4 71c-.3.3-.7.6-1 .9l2.9 14.9zm5-4.7c.2-.2.5-.4.7-.5l.7-16.2-1.2.6-.2 16.1zm26.7-5.8c.3.1.6.2.9.2l13.5-11.1-1.2-.6L101 76.3zm3.4 1 .9.3 14.4-9.5c-.4-.3-.7-.5-1.1-.8l-14.2 10zm-6.9-1.6c.3 0 .6.1.9.1l12.3-12.5c-.4-.2-.8-.3-1.3-.5L97.5 75.7zm-3.5-.2h.9l10.9-13.7c-.4-.1-.9-.2-1.3-.3L94 75.5zm-7 .7c.3-.1.6-.1.9-.2l7.8-15.6h-1.4L87 76.2zm3.5-.5c.3 0 .6-.1.9-.1l9.4-14.8c-.5-.1-.9-.1-1.4-.1l-8.9 15zm-25.9 45.6c-.1-.3-.2-.5-.4-.8l-8.6-2.2c.1.4.3.7.4 1.1l8.6 1.9zm1.5 2.9c-.1-.3-.3-.5-.4-.8l-8.3-1.2c.2.3.3.7.5 1l8.2 1zm-11.5-8.9 8.7 3c-.1-.3-.2-.6-.3-.8l-8.8-3.3c.2.4.3.7.4 1.1zm17.6 16.4-.6-.6-7.2 1.2c.2.3.5.5.7.8l7.1-1.4zm-2.3-2.3-.6-.6-7.6.5c.2.3.4.6.7.9l7.5-.8zm-2-2.5c-.2-.2-.3-.5-.5-.7l-8-.4.6.9 7.9.2zm6.8 6.8c-.2-.2-.5-.3-.7-.5l-6.7 1.9c.3.2.5.5.8.7l6.6-2.1zm-9.2-41.3c.1-.3.3-.5.4-.8l-5.2-13.2c-.2.4-.5.7-.7 1.1l5.5 12.9zm11.8 43.1c-.2-.1-.5-.3-.7-.5l-6.3 2.5.9.6 6.1-2.6zM64 95.5c.1-.3.2-.6.4-.8l-6.3-12.1-.6 1.2L64 95.5zm-1.9 6.5c.1-.3.1-.6.2-.9l-7.9-9.5-.3 1.2 8 9.2zm.8-3.3.3-.9L56 87c-.2.4-.3.8-.5 1.2l7.4 10.5zm-1.2 6.6c0-.3.1-.6.1-.9l-8.4-8.2c-.1.4-.1.8-.2 1.2l8.5 7.9zm.1 6.6c0-.3-.1-.6-.1-.9l-8.9-5.6c0 .4 0 .8.1 1.2l8.9 5.3zm.6 3.3c-.1-.3-.1-.6-.2-.9l-8.9-4.4c.1.4.1.8.2 1.2l8.9 4.1zm-.8-6.6v-.9l-8.7-6.9c0 .4 0 .8-.1 1.2l8.8 6.6zM70 65.3l-1.8-20.4L70 44l1.3 20.5c-.5.2-.9.5-1.3.8zm-3.2 2.4-3.3-19.9c-.6.4-1.1.8-1.6 1.2l3.9 19.7c.3-.4.7-.7 1-1zm-15.7 41-13.7-6.8c0 .6.1 1.1.2 1.7l13.7 6.4c-.1-.4-.1-.8-.2-1.3zM76 61.8l.9-20.9c-.6.2-1.3.5-1.9.7l-.3 20.8c.4-.2.8-.4 1.3-.6zm10.3-3.6 5.3-20.6c-.7.1-1.3.1-2 .2l-4.8 20.7c.6-.1 1-.2 1.5-.3zM81 59.7l3.1-20.9c-.7.1-1.3.3-2 .5l-2.5 20.9c.5-.2 1-.4 1.4-.5zm41.7 6.4 17.1-11.3-1.4-1.4-16.9 11.9c.4.3.8.5 1.2.8zM53.8 85.8c.2-.4.3-.8.5-1.3L44.2 69.3c-.3.6-.6 1.1-.8 1.7l10.4 14.8zm-1.6 4.8c.1-.4.2-.9.4-1.3L41.3 75.7c-.2.6-.4 1.2-.6 1.7l11.5 13.2zm3.8-9.5c.2-.4.4-.8.7-1.2L48 63.2c-.4.5-.7 1.1-1.1 1.6L56 81.1zm62.2-17.9 16.1-13.3c-.5-.4-1-.8-1.6-1.2l-15.8 13.8c.4.2.8.4 1.3.7zM58.7 76.6c.3-.4.5-.8.8-1.2l-7.1-18c-.4.5-.8 1-1.3 1.5l7.6 17.7zm-8 28.7c0-.4 0-.9-.1-1.3l-13.4-8.5v1.8l13.5 8zm0-4.9c0-.4 0-.9.1-1.3L37.9 88.9c-.1.6-.2 1.2-.2 1.8l13 9.7zm.5-4.9c.1-.4.1-.9.2-1.3L39.2 82.3c-.2.6-.3 1.2-.4 1.8l12.4 11.4zm56.9-36.6 13.3-16.7c-.6-.3-1.2-.5-1.9-.8l-12.8 17.1c.5.2 1 .3 1.4.4zm-5.3-1.1 11.5-18.1c-.7-.2-1.3-.4-2-.5l-11 18.4c.5 0 1 .1 1.5.2zM62 72.4c.3-.4.6-.7 1-1l-5.3-19.1c-.5.4-1 .9-1.5 1.3L62 72.4zm51.3-11.6 14.8-15.1c-.6-.3-1.2-.7-1.8-1l-14.4 15.5c.5.2.9.4 1.4.6zm-16-3.6 9.6-19.2c-.7-.1-1.3-.2-2-.3l-9 19.5h1.4zm-5.5.2 7.5-20.1h-2l-6.9 20.2c.4 0 .9-.1 1.4-.1zm-36.7 64.5-13.5-2 .6 1.5 13.4 1.6c-.1-.4-.3-.8-.5-1.1zm13.4 16.3-10.9 4.3c.4.3.7.6 1.1.9l10.7-4.5c-.3-.2-.6-.4-.9-.7zM52 113.3l-13.8-5.1c.1.5.2 1.1.3 1.6l13.8 4.7-.3-1.2zm1.4 4.4-13.7-3.5c.2.5.3 1 .5 1.5l13.7 3.1c-.2-.3-.4-.7-.5-1.1zm6.2 11.7-12.6.7c.3.4.5.8.8 1.3l12.6-1.1c-.3-.3-.5-.6-.8-.9zm5.7 6.2-11.5 3.2 1 1 11.4-3.5c-.3-.2-.6-.4-.9-.7zm-2.9-3-12.2 2 .9 1.2 12-2.4c-.2-.2-.5-.5-.7-.8zm-5.2-6.8-13.1-.6c.2.5.5.9.7 1.4l13.1.2c-.3-.4-.5-.7-.7-1zM79 144.2l-8.5 7 1.2.6 8.3-7.2c-.3-.2-.7-.3-1-.4zm-7.1-3.6-10.1 5.3c.4.3.8.5 1.1.8l9.9-5.5c-.3-.3-.6-.5-.9-.6zm3.5 1.9-9.3 6.2c.4.2.8.5 1.2.7l9.1-6.4c-.4-.2-.7-.3-1-.5zm7.4 3-7.7 7.8c.4.2.8.3 1.3.5l7.4-8c-.4-.1-.7-.2-1-.3z"/>
</svg>
